<?xml version="1.0" encoding="UTF-8" standalone="no"?><!DOCTYPE svg PUBLIC "-//W3C//DTD SVG 1.1//EN" "http://www.w3.org/Graphics/SVG/1.1/DTD/svg11.dtd"><svg width="100%" height="100%" viewBox="0 0 728 728" version="1.1" xmlns="http://www.w3.org/2000/svg" xmlns:xlink="http://www.w3.org/1999/xlink" xml:space="preserve" xmlns:serif="http://www.serif.com/" style="fill-rule:evenodd;clip-rule:evenodd;stroke-linejoin:round;stroke-miterlimit:2;"><g><g id="Background"><path d="M194.652,288.311c0.487,-0.921 0.443,-0.874 3.715,-7.799c5.223,-11.056 17.059,-27.721 19.067,-30.122c9.334,-11.159 8.871,-11.562 19.532,-21.48c42.789,-39.809 84.905,-46.285 95.224,-48.407c26.64,-5.478 51.055,-3.077 63.63,0.118c2.412,0.613 2.826,0.772 2.697,3.281c-0.2,3.89 -4.496,2.208 -19.355,19.326c-8.031,9.251 -15.774,25.76 -16.461,27.472c-13.464,33.592 -2.636,63.739 -11.706,84.961c-17.702,41.421 -57.163,39.727 -62.667,39.762c-21.104,0.136 -36.491,0.577 -51.969,-4.659c-2.643,-0.894 -13.781,-6.208 -16.369,-7.988c-16.205,-11.149 -21.558,-20.361 -24.579,-24.547c-9.46,-13.108 -5.554,-17.938 -0.758,-29.918Z" style="fill:#1d67a0;"/><path d="M381.71,548.521c-37.82,1.798 -38.648,-0.96 -46.5,-2.175c-0.497,-0.077 -5.441,-0.842 -5.943,-2.046c-0.928,-2.225 -0.162,-2.3 1.807,-3.707c14.025,-10.026 22.784,-23.585 24.329,-25.977c1.947,-3.015 13.008,-20.137 16.15,-41.856c3.703,-25.593 -8.32,-62.875 28.746,-89.27c17.44,-12.419 33.444,-11.048 64.018,-10.923c5.939,0.024 41.716,-2.109 68.133,34.509c7.637,10.586 7.182,14.786 7.029,16.189c-0.322,2.965 -13.512,43.951 -50.557,76.707c-22.566,19.953 -33.839,24.726 -49.674,32.516c-2.608,1.283 -21.999,8.842 -30.152,10.664c-2.179,0.487 -2.176,0.344 -27.386,5.368Z" style="fill:#1c6096;"/><path d="M548.747,340.754c2.873,27.421 1.488,27.43 0.15,43.811c-0.594,7.271 -0.098,7.406 -1.225,8.964c-1.267,1.752 -1.325,2.145 -3.454,1.736c-1.553,-0.298 -2.578,-3.184 -6.26,-7.346c-21.582,-24.4 -48.311,-29.34 -54.395,-30.762c-20.376,-4.765 -54.089,2.494 -74.571,-7.639c-2.527,-1.25 -11.848,-6.802 -17.888,-12.708c-1.859,-1.818 -7.797,-9.522 -8.368,-10.455c-11.498,-18.783 -10.052,-34.402 -9.939,-51.723c0.089,-13.548 -0.641,-35.1 16.821,-58.066c9.448,-12.425 21.609,-19.956 24.839,-22.224c10.109,-7.098 15.429,-4.951 33.133,3.786c40.238,19.858 66.508,55.068 73.33,66.248c16.599,27.205 22.332,43.939 27.827,76.378Z" style="fill:#1e6da8;"/><path d="M179.196,384.544c-0.305,-3.974 -2.424,-31.574 0.775,-49.815c0.618,-3.526 0.934,-4.974 4.189,-3.443c1.716,0.807 7.768,10.045 11.798,13.578c2.281,1.999 17.304,15.168 31.831,20.594c24.544,9.167 39.4,6.74 66.049,7.103c31.447,0.428 59.918,24.624 61.155,61.552c1.607,47.957 -5.449,56.034 -8.68,63.401c-8.48,19.337 -33.397,38.698 -44.241,38.831c-6.925,0.085 -35.23,-13.387 -55.398,-30.224c-50.891,-42.485 -62.764,-90.08 -67.479,-121.576Z" style="fill:#1c5287;"/><path d="M105.09,612.651c-0.892,-5.08 -2.426,-13.241 -2.582,-19.051c-0.047,-1.765 -0.368,-13.695 0.663,-22.058c1.607,-13.039 9.708,-26.311 15.234,-32.387c7.972,-8.766 11.13,-1.367 16.11,4.831c40.171,50.005 81.207,71.41 101.733,82.369c6.114,3.264 2.024,8.274 0.321,11.549c-2.313,4.447 -2.511,4.268 -4.883,8.63c-14.739,27.102 -17.147,31.802 -18.579,34.598c-4.437,8.661 -6.586,9.521 -10.051,8.802c-3.398,-0.705 -36.91,-19.906 -52.958,-32.104c-7.029,-5.342 -6.923,-5.373 -13.942,-10.788c-30.947,-23.876 -30.103,-31.637 -31.065,-34.39Z" style="fill:#1d3d6a;"/><path d="M609.67,539.011c16.734,20.012 17.153,36.555 15.802,60.076c-1.219,21.233 -8.246,25.977 -17.193,34.158c-4.734,4.329 -31.319,28.638 -64.88,47.129c-17.832,9.825 -19.434,9.546 -21.261,9.228c-2.322,-0.404 -2.902,-0.506 -15.79,-24.874c-2.012,-3.804 -1.857,-3.822 -4.146,-7.456c-1.193,-1.894 -12.927,-23.842 -13.127,-25.131c-0.759,-4.907 4.368,-6.406 4.812,-6.655c18.645,-10.452 19.111,-9.657 37.111,-22.636c0.461,-0.333 15.219,-9.455 37.932,-31.078c31.828,-30.301 30.295,-42.946 39.266,-34.158c0.484,0.474 0.99,0.925 1.474,1.399Z" style="fill:#f9b536;"/><path d="M503.414,105.807c-10.981,-6.278 -13.355,-6.978 -13.709,-10.036c-0.257,-2.222 -0.357,-3.09 12.111,-25.194c14.951,-26.506 14.537,-26.726 15.915,-28.984c4.778,-7.829 9.882,-2.895 15.145,-0.347c1.866,0.903 12.145,5.88 22.773,12.368c16.302,9.952 16.014,10.308 31.412,21.577c5.988,4.382 27.789,23.588 33.122,29.72c6.064,6.971 8.364,32.793 4.432,54.388c-2.793,15.337 -15.641,29.084 -17.253,30.151c-7.622,5.044 -7.338,-1.662 -24.056,-19.968c-35.913,-39.322 -62.616,-54.041 -79.892,-63.676Z" style="fill:#f6b63c;"/><path d="M159.481,154.098c-16.598,15.75 -29.849,35.527 -32.922,36.645c-3.247,1.181 -5.568,-0.462 -12.217,-9.069c-13.43,-17.385 -12.45,-37.131 -11.896,-55.505c0.591,-19.602 6.154,-22.452 14.945,-30.754c33.332,-31.476 66.594,-48.472 80.82,-56.041c10.994,-5.85 11.499,2.016 17.666,13.024c23.3,41.587 23.014,41.874 22.879,43.484c-0.441,5.239 -3.87,2.426 -38.527,24.635c-1.298,0.832 -13.674,9.79 -18.886,14.195c-2.144,1.812 -9.677,7.6 -21.861,19.385Z" style="fill:#195d91;"/><path d="M254.159,606.725c-1.012,1.481 -2.608,3.861 -3.838,4.388c-2.974,1.273 -5.63,-0 -11.838,-3.081c-9.397,-4.664 -34.295,-20.288 -48.173,-32.06c-11.326,-9.607 -15.067,-12.232 -10.841,-17.068c1.101,-1.26 26.397,-26.608 28.699,-28.915c16.112,-16.145 16.42,-16.629 19.672,-16.217c3.722,0.472 19.834,19.023 54.405,34.49c11.416,5.107 11.765,4.183 13.49,5.273c0.297,0.188 0.721,3.42 0.402,4.059c-0.203,0.408 -11.885,6.726 -22.242,18.988c-11.745,13.906 -19.597,29.895 -19.736,30.142Z" style="fill:#8e4f8d;"/><path d="M609.446,254.117c-11.349,4.985 -11.426,4.729 -22.065,11.139c-29.336,17.676 -27.819,33.944 -33.179,26.909c-3.374,-4.428 -5.504,-21.968 -32.294,-55.902c-5.812,-7.362 -9.795,-9.156 -2.439,-16.473c36.769,-36.571 36.378,-36.88 39.574,-40.055c0.407,-0.405 3.735,-3.711 6.593,-2.838c3.929,1.2 18.829,21.067 20.341,23.035c3.939,5.125 15.054,22.024 20.152,31.346c8.482,15.509 8.025,17.399 7.64,18.991c-0.312,1.289 -3.934,3.6 -4.324,3.849Z" style="fill:#9e578a;"/><path d="M486.043,524.535c5.342,-3.91 8.409,-6.588 9.109,-7.199c6.679,-5.832 8.219,-3.981 13.668,1.542c12.308,12.476 12.519,12.211 24.801,24.735c15.514,15.82 16.828,16.617 16.413,19.858c-0.18,1.402 -0.324,2.523 -12.35,12.645c-18.694,15.734 -46.252,30.969 -48.249,31.971c-4.53,2.273 -8.246,4.218 -11.8,2.702c-2.97,-1.267 -10.398,-21.108 -25.893,-37.581c-14.985,-15.932 -21.365,-13.244 -18.737,-18.585c1.19,-2.418 8.568,-3.569 15.176,-6.938c2.685,-1.369 19.717,-9.406 37.861,-23.15Z" style="fill:#79ad58;"/><path d="M252.203,194.38c-9.979,7.49 -10.141,7.182 -18.722,14.459c-8.182,6.939 -9.77,1.843 -22.623,-10.754c-9.642,-9.449 -22.59,-22.677 -30.19,-30.316c-6.751,-6.786 -0.353,-9.602 8.471,-17.088c1.679,-1.424 9.023,-7.655 22.015,-16.519c15.905,-10.852 33.039,-19.605 35.877,-19.686c8.15,-0.233 10.47,22.602 35.57,44.915c0.697,0.619 4.823,4.287 9.272,7.053c1.148,0.714 2.618,0.993 3.537,1.983c0.409,0.441 -0.048,1.203 -0.022,1.804c0.037,0.856 0.838,1.791 -1.367,2.891c-1.003,0.501 -10.975,3.835 -21.542,9.324c-10.481,5.444 -10.289,5.669 -20.275,11.934Z" style="fill:#2fa49f;"/><path d="M128.851,219.665c1.311,-1.982 10.713,-16.198 17.123,-24.27c14.614,-18.405 15.739,-19.178 18.894,-18.252c2.282,0.669 1.974,1.119 6.362,5.522c2.807,2.817 2.87,2.662 5.575,5.544c0.384,0.41 0.392,0.396 19.081,19.357c14.906,15.123 17.755,16.682 16.765,20.607c-2.028,8.037 -9.963,5.661 -32.11,48.944c-3.774,7.376 -5.476,13.662 -5.513,13.745c-0.171,0.381 -1.882,4.198 -4.617,2.418c-0.13,-0.085 -0.117,-0.105 -3.406,-4.652c-12.072,-16.69 -32.306,-26.74 -35.056,-28.421c-9.199,-5.62 -19.307,-5.686 -17.493,-13.265c0.066,-0.276 8.088,-17.409 14.397,-27.278Z" style="fill:#1e9298;"/><path d="M445.363,159.478c7.848,-7.49 7.695,-7.588 14.39,-16.106c3.987,-5.072 3.519,-5.331 5.511,-8.342c12.169,-18.399 10.704,-20.777 15.516,-20.967c5.456,-0.216 43.755,23.619 58.04,36.544c6.548,5.925 14.15,10.219 9.779,16.055c-0.181,0.242 -34.348,34.503 -36.968,37.086c-7.861,7.751 -9.695,10.924 -15.214,6.094c-3.114,-2.725 -3.126,-2.623 -6.464,-5.153c-0.245,-0.186 -0.22,-0.203 -3.025,-2.382c-27.752,-21.557 -52.03,-28.767 -52.692,-29.593c-1.917,-2.392 -0.162,-4.762 0.08,-5.089c0.653,-0.883 1.031,-0.421 11.047,-8.147Z" style="fill:#ef832e;"/><path d="M121.005,470.9c3.06,-1.364 24.817,-9.43 41.276,-28.118c7.403,-8.406 7.171,-11.218 10.915,-9.4c3.901,1.894 3.687,19.633 33.769,57.581c3.809,4.805 8.991,7.067 1.501,14.581c-24.327,24.405 -24.168,24.511 -35.447,36.048c-6.643,6.796 -8.345,10.421 -14.944,3.556c-22.783,-23.702 -39.367,-56.602 -42.064,-61.951c-4.083,-8.099 -1.258,-9.232 4.994,-12.297Z" style="fill:#ed7737;"/><path d="M606.895,470.903c0.555,0.273 6.106,3.007 6.605,4.011c1.769,3.562 0.186,4.223 -2.999,11.676c-3.625,8.481 -16.314,28.759 -20.784,34.798c-8.053,10.879 -19.598,24.474 -20.985,25.398c-6.164,4.109 -6.556,0.839 -11.908,-4.307c-5.209,-5.007 -21.515,-21.631 -26.038,-26.282c-13.772,-14.16 -17.478,-15.261 -13.381,-20.973c1.353,-1.886 22.131,-23.049 34.434,-55.782c1.671,-4.445 1.054,-4.951 2.841,-5.898c4.55,-2.411 4.32,0.317 7.452,4.371c13.711,17.745 27.235,25.073 44.764,32.989Z" style="fill:#77ac56;"/><path d="M416.381,662.392c0.21,-6.147 -0.83,-9.797 6.545,-11.564c8.442,-2.023 8.393,-1.978 16.828,-4.241c12.896,-3.459 23.571,-7.783 24.805,-8.162c8.572,-2.634 9.561,3.036 16.607,15.514c19.092,33.81 19.896,35.606 21.346,38.842c3.864,8.627 -2.287,8.31 -21.965,15.607c-14.925,5.535 -47.363,12.754 -57.541,13.913c-8.211,0.935 -6.578,-6.296 -6.554,-13.205c0.081,-23.391 0.019,-23.351 -0.07,-46.706Z" style="fill:#eeb53d;"/><path d="M311.781,673.372c-0.035,39.878 -0.056,39.856 -0.005,41.264c0.332,9.19 -3.601,7.998 -12.628,6.43c-19.461,-3.38 -19.278,-4.02 -38.421,-8.8c-1.653,-0.413 -1.723,-0.134 -24.789,-8.226c-0.817,-0.286 -8.498,-2.981 -9.934,-4.285c-3.489,-3.168 1.617,-9.746 10.418,-26.169c3.806,-7.103 4.195,-6.84 7.737,-14.029c0.521,-1.057 0.589,-1.007 7.021,-12.95c4.411,-8.19 6.061,-8.616 6.931,-8.841c4.703,-1.215 15.186,4.517 30.11,8.505c8.396,2.243 8.307,2.364 16.754,4.428c7.876,1.924 6.851,4.437 6.807,22.672Z" style="fill:#185b8a;"/><path d="M416.407,38.093c0.219,-23.857 -0.074,-24.047 -0.046,-27.48c0.005,-0.599 0.048,-5.882 3.716,-6.503c1.566,-0.265 1.544,-0.066 19.534,3.557c22.442,4.52 52.788,14.483 59.902,17.917c7.575,3.656 3.381,8.225 -0.883,16.04c-7.683,14.08 -23.973,44.161 -26.121,45.946c-3.643,3.028 -14.419,-2.097 -16.371,-2.862c-13.933,-5.461 -29.838,-8.08 -36.071,-10.342c-4.385,-1.591 -3.558,-5.147 -3.661,-36.273Z" style="fill:#f7b83f;"/><path d="M311.799,38.171c-0.006,2.74 -0.007,2.705 -0.012,5.478c-0.008,4.171 -0.181,4.103 -0.166,8.231c0.035,9.512 1.889,20.914 -3.772,22.708c-2.016,0.639 -6.471,1.029 -30.357,8.083c-12.788,3.776 -18.773,10.143 -24.198,1.771c-1.886,-2.911 -13.879,-24.569 -15.068,-26.715c-5.977,-10.795 -6.049,-10.706 -11.57,-21.718c-0.194,-0.386 -0.495,-0.71 -0.707,-1.086c-4.477,-7.956 0.457,-8.456 12.939,-13.075c17.746,-6.567 44.036,-13.259 57.862,-15.631c0.894,-0.153 1.8,-0.224 2.695,-0.365c2.18,-0.343 10.937,-3.253 11.936,1.636c1.037,5.074 -0.337,10.193 0.416,30.685Z" style="fill:#31a4a0;"/><path d="M91.46,321.552c5.551,-25.084 4.308,-25.381 12.566,-49.676c0.152,-0.447 1.045,-4.347 5.737,-3.641c0.455,0.069 19.296,7.877 29.404,15.537c30.303,22.964 24.26,46.791 22.246,65.077c-0.351,3.19 0.124,3.549 -2.347,5.542c-1.277,1.03 -1.524,0.558 -60.5,0.817c-2.467,0.011 -8.244,1.006 -9.873,-3.779c-0.925,-2.719 2.443,-27.499 2.767,-29.878Z" style="fill:#1b9096;"/><path d="M636.531,318.808c0.375,2.589 4.16,28.735 2.693,32.589c-1.856,4.878 -4.404,3.551 -37.409,3.563c-27.819,0.011 -31.111,0.361 -32.843,-0.815c-2.565,-1.74 -2.104,-7.991 -2.849,-13.511c-2.192,-16.263 -4.973,-39.398 29.684,-61.345c5.478,-3.469 7.969,-4.914 17.43,-9.177c6.28,-2.83 8.575,-4.821 10.842,1.676c8.098,23.208 8.686,31.385 12.452,47.019Z" style="fill:#9d578a;"/><path d="M288.687,97.245c31.149,-7.665 40.167,-8.421 43.721,-8.718c17.888,-1.498 19.58,-1.466 21.225,-0.095c2.097,1.748 1.717,6.383 1.722,21.214c0.017,47.125 0.221,47.48 -1.387,49.169c-2.297,2.412 -22.516,3.393 -27.144,2.975c-24.843,-2.242 -42.746,-25.384 -44.107,-27.321c-0.803,-1.143 -7.774,-11.06 -9.656,-14.543c-5.298,-9.806 -5.484,-9.706 -5.82,-10.615c-0.281,-0.762 0.052,-3.547 0.39,-4.008c1.066,-1.455 1.239,-1.383 21.056,-8.058Z" style="fill:#31a19d;"/><path d="M398.222,88.617c4.675,0.683 33.503,4.892 57.361,14.046c0.405,0.155 4.142,1.589 4.814,2.486c1.34,1.788 0.563,3.927 0.446,4.248c-0.175,0.482 -13.313,22.735 -16.8,26.906c-22.293,26.672 -44.094,25.602 -48.466,25.388c-19.013,-0.933 -19.96,-2.071 -21.051,-3.383c-2.49,-2.994 -1.545,-3.517 -1.559,-48.651c-0.005,-14.738 -0.159,-19.133 1.679,-20.908c2.144,-2.071 7.967,-1.326 23.575,-0.133Z" style="fill:#ef832d;"/><path d="M403.606,636.415c-24.898,2.67 -29.991,4.438 -30.621,-4.206c-0.11,-1.511 -0.181,-59.264 -0.009,-60.632c0.775,-6.152 2.977,-5.8 19.9,-7.06c29.297,-2.181 51.403,22.201 62.789,43.098c5.464,10.029 6.15,11.546 3.574,13.993c-1.578,1.499 -22.071,7.591 -25.03,8.347c-7.27,1.858 -20.095,4.33 -30.604,6.459Z" style="fill:#f8b639;"/><path d="M91.228,403.763c-0.525,-4.036 -2.731,-18.716 -2.642,-24.642c0.073,-4.861 -0.055,-5.816 4.649,-7.041c1.423,-0.37 59.791,0.281 60.383,0.296c4.404,0.113 7.027,0.673 7.623,6.851c1.241,12.874 3.492,22.596 0.06,32.76c-8.499,25.169 -29.281,34.415 -37.599,39.345c-1.228,0.728 -12.543,7.433 -16.602,6.556c-3.135,-0.678 -4.805,-9.476 -6.605,-15.237c-4.505,-14.419 -4.419,-14.643 -9.267,-38.886Z" style="fill:#ee7a3a;"/><path d="M313.598,567.399c8.983,-2.694 9.043,-4.227 35.252,-1.648c7.192,0.708 6.504,3.838 6.5,11.397c-0.031,58.249 0.356,58.644 -1.231,60.313c-4.204,4.421 -52.051,-4.157 -71.172,-11.183c-13.423,-4.932 -15.482,-3.638 -15.516,-7.789c-0.007,-0.821 5.579,-10.533 6.251,-11.607c2.283,-3.649 6.051,-10.477 8.562,-13.682c12.512,-15.969 20.064,-20.046 31.353,-25.801Z" style="fill:#175b8c;"/><path d="M72.773,390.216c-0.119,3.958 0.693,4.301 -1.037,6.014c-2.585,2.559 -5.557,1.195 -47.431,1.615c-16.956,0.17 -20.045,0.058 -22.062,-2.149c-2.93,-3.208 -2.812,-58.347 -0.668,-63.681c1.749,-4.351 3.482,-2.793 52.983,-3.148c8.534,-0.061 16.311,-0.998 17.641,3.01c2.695,8.122 -4.498,8.527 0.574,58.34Z" style="fill:#e97439;"/><path d="M340.464,655.218c26.786,2.653 30.434,1.715 52.421,-0.066c0.612,-0.05 5.8,-0.47 6.316,4.356c0.127,1.185 0.056,53.257 0.049,57.888c-0.012,9.057 -3.162,8.431 -14.64,9.041c-31.178,1.655 -50.151,-0.516 -52.013,-1.403c-4.352,-2.074 -2.692,-5.533 -3.01,-57.141c-0.032,-5.275 -0.682,-9.839 1.905,-12.088c1.69,-1.469 1.974,-0.73 8.971,-0.585Z" style="fill:#339a96;"/><path d="M636.709,403.764c-4.831,26.087 -5.203,25.985 -11.355,46.512c-0.18,0.6 -1.84,6.14 -3.683,6.916c-3.014,1.268 -6.328,-0.402 -11.932,-3.13c-52.158,-25.395 -44.56,-59.077 -44.31,-61.252c1.713,-14.881 1.313,-14.937 1.728,-16.17c1.505,-4.472 2.419,-4.137 7.102,-4.224c3.963,-0.073 3.94,-0.01 49.543,-0.132c8.338,-0.022 15.241,-2.12 15.474,6.849c0.192,7.369 -2.256,22.675 -2.569,24.632Z" style="fill:#79ae57;"/><path d="M381.877,70.13c-23.639,-1.699 -43.894,0.877 -46.81,0.956c-0.472,0.013 -4.068,0.11 -5.183,-2.816c-0.78,-2.047 -0.65,-2.094 -0.392,-27.381c0.343,-33.673 -0.929,-37.447 2.414,-39.104c2.595,-1.286 3.995,-1.98 36.158,-1.736c26.119,0.199 29.843,0.333 30.92,4.931c0.205,0.873 0.196,7.751 0.196,8.426c-0.065,54.33 0.621,55.01 -1.66,56.788c-0.621,0.484 -0.669,1.211 -15.642,-0.063Z" style="fill:#32a39e;"/><path d="M657.817,362.648c-0.112,-10.338 0.104,-12.238 -1.246,-21.972c-1.153,-8.311 -2.675,-11.866 5.745,-11.917c4.622,-0.028 42.233,-0.254 57.773,0.003c4.504,0.075 5.331,-0.248 6.895,3.979c0.808,2.184 0.976,46.277 0.216,57.359c-0.336,4.905 0.193,5.955 -4.533,7.484c-0.667,0.216 -17.556,0.073 -19.083,0.06c-45.225,-0.384 -46.124,0.761 -47.311,-1.575c-1.438,-2.829 -0.953,-2.933 -0.585,-6.05c1.609,-13.659 1.929,-13.609 2.129,-27.37Z" style="fill:#7e4987;"/><path d="M649.223,296.476c-1.576,-5.465 -1.662,-5.405 -2.953,-10.934c-3.01,-12.9 -4.021,-12.569 -6.03,-19.126c-1.839,-6.002 -0.565,-6.749 5.312,-9c21.046,-8.061 20.899,-8.361 22.74,-9.027c8.2,-2.966 7.789,-3.889 16.07,-6.602c10.258,-3.36 17.803,-8.982 21.014,-4.956c0.186,0.233 4.281,10.396 5.833,15.984c6.067,21.836 6.863,21.622 10.546,44.022c1.477,8.985 4.894,15.297 -4.455,14.99c-4.176,-0.137 -9.814,-0.322 -52.226,-0.273c-8.787,0.01 -11.338,1.77 -13.653,-6.694c-1.144,-4.183 -1.089,-4.154 -2.198,-8.386Z" style="fill:#9d5989;"/><path d="M65.564,311.526c-45.597,0.023 -45.538,0.074 -49.497,0.058c-8.362,-0.032 -12.62,1.49 -11.055,-6.702c3.507,-18.36 3.332,-22.511 5.85,-30.151c3.238,-9.824 4.708,-19.192 11.178,-35.633c2.586,-6.571 8.676,-2.566 11.084,-1.548c6.58,2.783 14.833,5.692 16.191,6.261c2.184,0.914 24.048,10.07 27.376,11.232c9.896,3.454 14.33,3.544 10.508,13.967c-6.451,17.594 -5.594,17.794 -10.102,36.022c-1.836,7.426 -3.899,6.362 -11.533,6.494Z" style="fill:#1d3f6b;"/><path d="M19.777,480.56c-5.296,-14.703 -10.146,-32.932 -11.579,-40.995c-3.14,-17.662 -3.374,-17.61 -3.516,-19.162c-0.588,-6.417 5.806,-5.352 22.377,-5.219c44.255,0.355 44.878,-0.907 47.547,1.624c1.645,1.56 3.353,8.572 3.542,9.349c8.784,36.068 12.924,36.821 9.047,40.622c-1.331,1.305 -1.4,1.31 -21.492,9.016c-32.939,12.633 -32.731,13.143 -35.632,14.137c-6.963,2.386 -7.5,-1.747 -10.294,-9.371Z" style="fill:#dc6331;"/><path d="M641.483,456.576c5.171,-13.379 4.653,-15.487 9.334,-33.56c2.356,-9.094 5.062,-7.838 19.744,-7.735c49.389,0.346 49.585,-0.429 51.57,0.677c2.47,1.376 1.231,6.694 1.097,7.267c-3.777,16.209 -2.657,16.422 -5.071,24.902c-7.135,25.067 -7.28,25.468 -8.065,27.633c-4.726,13.038 -4.784,13.066 -5.976,14.119c-2.662,2.349 -9.28,-0.954 -11.136,-1.723c-32.522,-13.476 -35.957,-14.371 -46.924,-18.861c-7.532,-3.084 -7.11,-5 -4.574,-12.719Z" style="fill:#76aa58;"/><path d="M86.514,156.563c0.446,2.567 3.231,18.584 11.316,30.539c12.906,19.085 19.837,17.074 16.628,23.991c-0.953,2.054 -1.722,1.601 -13.733,24.744c-2.709,5.219 -3.954,8.673 -10.645,6.607c-1.8,-0.556 -1.667,-0.838 -21.964,-8.492c-2.219,-0.837 -2.06,-1.097 -27.331,-11.48c-7.203,-2.959 -7.271,-2.857 -7.769,-3.353c-3.234,-3.22 1.622,-10.106 5.35,-18.587c3.621,-8.238 18.336,-33.182 27.814,-46.494c6.257,-8.787 6.67,-8.409 12.796,-17.277c0.309,-0.447 6.808,-9.605 6.042,3.112c-0.376,6.242 1.121,14.091 1.497,16.691Z" style="fill:#1c3f6b;"/><path d="M86.502,568.677c-1.447,9.72 -1.764,9.687 -1.325,19.508c0.11,2.474 0.766,2.867 -1.203,4.317c-4.189,3.084 -3.512,-0.904 -6.724,-4.957c-5.957,-7.518 -11.908,-16.325 -12.892,-17.781c-0.187,-0.277 -2.579,-2.879 -4.452,-6.279c-2.932,-5.32 -6.019,-8.847 -8.393,-13.678c-4.522,-9.205 -5.983,-8.408 -15.827,-30.575c-2.963,-6.673 -6.485,-11.212 -0.391,-13.632c43.362,-17.22 43.24,-17.448 52.556,-21.22c10.324,-4.18 10.236,2.58 14.203,9.895c12.321,22.718 12.966,22.84 12.244,24.942c-1.785,5.193 -11.258,8.816 -19.981,25.543c-5.013,9.612 -6.359,16.189 -7.815,23.919Z" style="fill:#834b88;"/><path d="M641.493,565.856c-0.423,-1.756 -3.137,-13.031 -7.685,-21.226c-0.754,-1.359 -5.659,-10.196 -11.113,-15.941c-7.215,-7.6 -11.447,-8.02 -6.237,-17.074c4.536,-7.882 4.67,-7.788 5.05,-8.48c3.86,-7.037 3.521,-7.161 7.232,-14.299c4.138,-7.959 6.33,-6.616 14.631,-3.144c17.795,7.444 17.825,7.333 19.366,7.994c11.979,5.133 12.143,4.616 24.058,9.804c7.513,3.271 11.565,2.837 8.362,10.337c-3.421,8.01 -11.366,26.562 -30.278,54.933c-7.132,10.699 -7.62,10.29 -14.887,20.952c-1.589,2.332 -1.283,3.118 -4.111,3.118c-3.299,0.001 -2.393,-1.461 -2.236,-4.748c0.568,-11.903 0.352,-11.908 -2.15,-22.225Z" style="fill:#6aa151;"/><path d="M643.981,145.466c-0.337,-7.592 -0.455,-7.548 -0.364,-8.198c0.022,-0.157 0.037,-0.266 1.315,-1.478c1.893,-1.795 2.472,-1.284 3.997,0.857c2.68,3.762 6.602,8.582 7.197,9.313c7.751,9.526 25.123,36.529 32.598,52.228c7.885,16.559 7.749,17.355 7.474,18.962c-0.397,2.317 -3.64,3.208 -14.731,7.757c-44.842,18.393 -45.384,19.228 -49.714,17.163c-0.73,-0.348 -1.488,-0.71 -5.274,-8.633c-9.517,-19.92 -14.309,-22.169 -12.415,-26.865c1.657,-4.108 25.903,-17.596 29.917,-61.106Z" style="fill:#9d5887;"/><path d="M248.703,425.869c0.408,-4.329 -0.546,-4.613 1.571,-7.933c0.15,-0.235 2.376,-2.456 2.557,-2.557c3.328,-1.863 4.327,-1.579 5.55,2.052c3.46,10.275 11.972,8.731 15.332,2.587c2.082,-3.808 1.061,-4.1 1.281,-4.393c0.649,-0.861 1.622,-2.153 13.384,-1.597c5.471,0.258 4.6,2.727 4.888,3.893c1.388,5.622 9.847,10.854 15.187,2.908c1.098,-1.634 2.016,-5.537 2.04,-5.558c2.081,-1.84 6.987,0.791 8.29,5.06c0.579,1.898 0.976,3.197 0.983,24.784c0.009,24.518 0.595,29.045 -4.404,32.324c-1.631,1.07 -3.782,2.481 -24.294,2.086c-35.302,-0.679 -36.583,1.027 -40.955,-4.339c-3.14,-3.854 -1.978,-27.466 -1.409,-49.316Z" style="fill:#bcc4d3;"/><path d="M274.555,433.358c17.09,-0.383 32.832,0.019 33.092,0.044c5.662,0.554 5.098,5.198 5.051,11.728c-0.165,22.545 0.426,25.262 -2.829,26.736c-1.972,0.893 -2.265,1.026 -27.052,0.801c-19.166,-0.174 -25.32,0.862 -26.977,-3.017c-1.364,-3.193 -0.603,-31.257 -0.262,-32.67c1.092,-4.528 6.615,-3.535 18.977,-3.621Z" style="fill:#1d4c7f;"/><path d="M422.462,453.789c-0.477,-0.835 -3.738,-6.544 -3.656,-11.449c0.202,-12.07 3.144,-14.725 4.275,-16.437c4.352,-6.587 13.218,-11.805 22.01,-11.395c14.149,0.659 22.15,12.7 23.755,19.857c2.425,10.808 -3.96,20.04 -4.964,21.492c-8.38,12.117 -7.414,12.757 -8.396,13.572c-1.856,1.54 -19.871,0.894 -21.408,0.446c-1.973,-0.574 -1.859,-2.949 -11.616,-16.086Z" style="fill:#d2dfdb;"/><path d="M456.36,280.091c0.342,-0.702 -0.017,-1.617 0.325,-2.319c0.083,-0.171 8.481,-6.681 9.663,-11.702c2.713,-11.532 -6.947,-18.636 -15.84,-16.433c-5.015,1.242 -4.697,1.91 -8.381,5.567c-10.022,9.951 -10.218,9.808 -10.849,11.166c-1.702,3.659 -1.487,4.121 1.327,7.005c4.084,4.185 4.14,4.06 8.189,8.319c3.056,3.215 7.376,4.614 3.158,11.542c-5.231,8.592 -3.993,9.724 -10.878,16.118c-13.848,12.86 -29.965,2.097 -31.152,-10.054c-1.152,-11.795 6.597,-17.427 14.714,-25.62c6.85,-6.913 6.081,-7.541 11.494,-13.154c3.335,-3.457 12.825,-14.519 19.422,-16.733c19.781,-6.638 35.743,19.178 17.49,34.469c-4.872,4.082 -8.641,1.83 -8.683,1.829Z" style="fill:#c2dbda;"/><path d="M280.663,276.106c13.445,4.209 28.392,7.288 26.523,23.234c-0.165,1.404 -1.167,9.96 -10.4,14.286c-1.084,0.508 -2.228,0.881 -3.322,1.37c-6.902,3.081 -3.035,8.576 -7.321,10.268c-3.804,1.502 -5.877,-0.633 -6.229,-0.995c-0.966,-0.994 -0.794,-7.055 -5.181,-8.784c-1.769,-0.697 -5.358,-0.712 -11.319,-4.917c-5.146,-3.63 0.466,-10.671 5.435,-10.106c0.149,0.017 14.147,6.072 19.999,2.718c6.006,-3.443 3.985,-8.546 -1.02,-10.981c-8.381,-4.077 -27.955,-5.354 -26.256,-22.941c0.132,-1.369 0.92,-9.522 10.289,-13.773c4.15,-1.883 5.423,-0.857 6.721,-5.242c1.351,-4.562 -0.07,-5.983 3.88,-7.115c0.572,-0.164 4.772,-1.367 6.349,3.879c0.28,0.93 0.048,4.831 4.638,6.575c2.867,1.09 2.936,0.79 5.792,1.967c7.85,3.236 3.093,12.226 -2.791,11.481c-0.428,-0.054 -0.285,-0.499 -5.112,-1.698c-9.903,-2.46 -16.505,0.99 -14.881,6.953c0.257,0.944 1.154,1.759 1.289,1.882c1.334,1.212 1.6,0.743 2.916,1.939Z" style="fill:#b8c7d4;"/><path d="M459.51,286.723c2.061,-0.596 18.273,-7.683 28.513,7.81c4.283,6.479 3.168,14.452 2.99,15.72c-1.414,10.108 -16.54,25.77 -32.886,14.964c-5.24,-3.464 -5.468,-3.336 -8.579,-8.823c-5.99,-10.567 1.214,-23.42 6.739,-27.748c0.985,-0.771 2.238,-1.152 3.223,-1.923Z" style="fill:#bed7d9;"/><path d="M477.944,302.642c0.716,0.34 1.595,0.224 2.312,0.565c0.593,0.282 5.541,5.247 -2.211,7.092c-2.176,0.518 -2.432,0.12 -3.893,1.821c-1.119,1.303 -1.681,7.124 -4.082,7.481c-4.916,0.732 -3.348,-2.043 -5.29,-6.711c-0.824,-1.981 -1.182,-1.708 -3.27,-2.332c-2.995,-0.895 -3.601,-0.249 -4.994,-3.034c-1.528,-3.053 2.265,-4.352 2.66,-4.487c3.545,-1.214 4.565,-0.148 5.751,-3.362c0.305,-0.826 0.239,-1.752 0.501,-2.593c0.125,-0.401 1.094,-3.517 4.33,-2.978c2.628,0.438 3.261,6.706 5.616,7.92c0.783,0.404 1.787,0.215 2.571,0.618Z" style="fill:#1f6497;"/><path d="M442.272,432.554c0.011,0 8.695,-0.284 11.589,0.864c2.212,0.877 2.493,4.3 -1.349,5.069c-0.444,0.089 -17.237,0.114 -17.735,0.011c-1.806,-0.374 -6.385,-4.471 1.781,-5.7c0.452,-0.068 0.423,-0.018 5.714,-0.244Z" style="fill:#396483;"/><path d="M445.076,449.317c-7.921,-0.265 -7.865,-0.172 -8.542,-0.267c-6.357,-0.889 -3.545,-5.096 -1.337,-5.482c0.384,-0.067 16.458,-0.153 17.242,0.02c3.856,0.854 4.197,5.127 -1.958,5.715c-1.793,0.171 -3.611,-0.158 -5.405,0.013Z" style="fill:#386280;"/><path d="M433.752,481.154c0.192,-1.065 -1.481,-1.914 -1.289,-2.979c0.185,-1.026 1.229,-1.888 2.224,-2.198c0.103,-0.032 17.689,-0.047 18.07,0.12c2.779,1.221 3.678,1.541 2.343,4.244c-0.243,0.492 -0.99,0.597 -1.233,1.088c-10.338,-0.668 -13.176,-0.453 -14.318,-0.366c-2.917,0.221 -2.856,0.045 -5.797,0.092Z" style="fill:#cbe1ea;"/><path d="M433.752,481.154c2.941,-0.046 2.88,0.13 5.797,-0.092c1.143,-0.087 3.981,-0.302 14.318,0.366c-1.317,5.907 -1.143,5.918 -1.742,6.912c-0.282,0.469 -0.949,0.617 -1.231,1.085c-1.252,-0.821 -1.331,-2.854 -2.584,-3.675c-0.158,-0.104 -9.26,-0.107 -9.512,0c-1.215,0.517 -0.799,2.896 -2.014,3.413c-0.421,-1.055 -1.277,-1.899 -1.698,-2.954c-0.155,-0.389 -0.099,-0.375 -1.335,-5.057Z" style="fill:#5b859f;"/><path d="M403.751,435.682c5.207,0.761 8.774,-0.343 6.5,4.376c-1.628,3.378 -12.183,2.28 -12.542,-0.195c-0.639,-4.401 1.679,-3.189 6.042,-4.181Z" style="fill:#b9d9ea;"/><path d="M447.343,401.154c-0.047,0.397 -0.583,4.965 -0.583,4.965c-0.185,0.337 -1.609,2.925 -4.729,0.863c-1.289,-0.852 -2.012,-9.852 0.169,-11.509c2.737,-2.079 4.236,0.587 4.413,0.901c0.19,0.337 0.054,0.352 0.731,4.779Z" style="fill:#b5daea;"/><path d="M483.555,442.675c-0.907,-0.174 -1.855,-0.03 -2.762,-0.204c-4.218,-0.809 -3.936,-5.301 -0.142,-6.096c0.803,-0.168 9.874,-2.069 9.664,3.422c-0.015,0.388 -0.087,2.283 -3.961,2.805c-0.925,0.125 -1.874,-0.052 -2.798,0.073Z" style="fill:#c2e4f1;"/><path d="M269.949,409.113c-0.644,6.254 -0.054,6.49 -1.434,7.952c-0.393,0.416 -4.122,4.26 -5.171,-4.94c-0.065,-0.57 -0.731,-6.416 2.85,-6.581c1.513,-0.07 2.629,0.991 2.805,1.158c0.99,0.941 -0.048,1.462 0.95,2.411Z" style="fill:#afc2d8;"/><path d="M297.917,412.56c1.035,-4.859 -0.508,-7.509 4.411,-6.864c3.718,0.488 2.312,12.102 -0.08,12.475c-0.927,0.144 -1.75,-1.011 -2.677,-0.867c-0.551,-1.581 -1.103,-3.163 -1.654,-4.744Z" style="fill:#bdcee1;"/><path d="M436.785,489.165c1.215,-0.517 0.799,-2.896 2.014,-3.413c0.252,-0.107 9.353,-0.104 9.512,-0c1.252,0.821 1.331,2.854 2.584,3.675c-9.023,4.845 -10.935,1.147 -14.11,-0.261Z" style="fill:#bfdae3;"/><path d="M303.725,445.221c-1.66,3.303 -0.714,4.839 -4.407,4.922c-5.82,0.131 -5.964,-9.05 0.015,-8.956c2.003,0.032 2.801,0.765 2.985,0.934c1.316,1.209 0.089,1.89 1.407,3.1Z" style="fill:#abbdd5;"/><path d="M413.287,416.312c-2.866,-4.017 -2.965,-3.931 -3.094,-4.337c-0.05,-0.157 -0.317,-0.999 0.211,-2.053c1.681,-3.352 5.913,0.211 6.3,0.537c5.677,4.78 2.84,9.272 -1.859,7.129c-0.611,-0.279 -0.947,-0.998 -1.558,-1.277Z" style="fill:#b1d3e3;"/><path d="M470.916,410.679c0.629,-0.303 1.015,-0.995 1.644,-1.298c0.366,-0.176 3.694,-1.78 5.063,0.319c1.499,2.297 -3.108,7.549 -5.004,8.084c-5.017,1.416 -5.924,-1.481 -2.996,-5.798c0.344,-0.507 0.949,-0.8 1.293,-1.307Z" style="fill:#bde0ea;"/><path d="M282.655,464.98c-0.52,-0.578 -1.519,-0.556 -2.039,-1.134c-1.077,-1.199 -1.895,-6.913 2.287,-7.354c6.392,-0.675 5.791,7.258 2.811,8.216c-0.975,0.313 -2.085,-0.041 -3.059,0.272Z" style="fill:#aabcd2;"/><path d="M266.343,464.349c-0.364,-1.082 -1.453,-1.822 -1.818,-2.904c-0.613,-1.82 1.464,-5.782 4.567,-5.527c4.254,0.35 4.409,8.59 0.031,8.996c-0.942,0.088 -1.839,-0.653 -2.781,-0.566Z" style="fill:#abbdd2;"/><path d="M279.419,445.102c0.563,-0.681 0.428,-1.777 0.991,-2.458c1.331,-1.61 7.258,-2.495 7.395,2.52c0.165,6.059 -6.649,4.232 -7.708,2.708c-0.542,-0.781 -0.136,-1.989 -0.678,-2.77Z" style="fill:#abbad2;"/></g></g></svg>